PathFileType	4	(X/Y/Z)	SUBJ11_1_walk_RCNL2025.trc
DataRate	CameraRate	NumFrames	NumMarkers	Units	OrigDataRate	OrigDataStartFrame	OrigNumFrames
100	100	5	25	mm	100	388	443
Frame#	Time	R_Shoulder			L_Shoulder			C7			J_Notch			R_Elbow			L_Elbow			R_Wrist			L_Wrist			R_Asis			L_Asis			Sacral			Thoracic			Sternum			R_Thigh_Lateral			R_Knee_Lateral			R_Shank_Lateral			R_Ankle_Lateral			R_Heel			R_Toe			L_Thigh_Lateral			L_Knee_Lateral			L_Shank_Lateral			L_Ankle_Lateral			L_Heel			L_Toe		
		X1	Y1	Z1	X2	Y2	Z2	X3	Y3	Z3	X4	Y4	Z4	X5	Y5	Z5	X6	Y6	Z6	X7	Y7	Z7	X8	Y8	Z8	X9	Y9	Z9	X10	Y10	Z10	X11	Y11	Z11	X12	Y12	Z12	X13	Y13	Z13	X14	Y14	Z14	X15	Y15	Z15	X16	Y16	Z16	X17	Y17	Z17	X18	Y18	Z18	X19	Y19	Z19	X20	Y20	Z20	X21	Y21	Z21	X22	Y22	Z22	X23	Y23	Z23	X24	Y24	Z24	X25	Y25	Z25
388	3.87000000	962.291931	1460.639526	193.866745	980.439270	1440.650513	-201.063187	930.046448	1499.845093	-6.554673	1072.729980	1395.154297	9.767417	874.425293	1130.239502	287.761444	1010.510559	1095.023193	-271.671936	915.155670	870.711914	292.281860	1138.901306	865.657104	-231.278130	1044.809326	977.616150	165.955765	1045.051270	975.861755	-124.942871	867.352112	994.442444	17.316463	849.098206	1313.397461	-3.283882	1141.118652	1199.769043	19.448317	1064.659180	641.877258	242.060059	1105.554810	496.916260	187.233658	984.501160	332.754761	204.880280	858.394531	184.237534	125.333504	808.636536	206.491089	69.328773	952.775879	85.999786	101.009995	976.331848	623.357361	-183.850983	995.967957	470.714111	-94.336159	973.956726	257.729095	-119.425018	961.335754	67.147751	-39.622814	903.954102	62.860542	10.820693	1094.658203	51.090286	-3.588501
389	3.88000000	971.875549	1460.438232	193.562241	990.340881	1441.633789	-201.265701	939.924683	1500.190308	-6.772115	1082.373779	1395.286743	9.335286	881.760559	1130.249878	286.268738	1024.643066	1096.630615	-272.920654	921.062592	870.512390	290.474777	1158.497375	870.687714	-230.828987	1055.408813	978.151245	164.947083	1054.045288	976.004944	-125.680000	877.055847	994.661011	17.549488	858.758179	1313.583862	-3.823252	1150.706421	1199.974365	18.470640	1079.611938	643.559265	240.869766	1122.164429	498.630219	185.193893	1007.635925	329.436584	203.844681	887.822754	175.371124	125.141731	836.893982	195.059006	69.244553	986.860962	81.879333	101.410843	981.937134	623.423584	-183.599976	998.884460	470.647522	-93.918045	975.079651	257.805267	-119.155922	961.431641	67.192291	-39.433781	904.030151	63.154503	11.089923	1094.762695	51.063210	-3.583905
390	3.89000000	981.531250	1460.040161	193.277863	1000.247864	1442.353760	-201.475403	949.857849	1500.325195	-7.001061	1092.067871	1395.196045	8.916730	889.197205	1130.079102	284.858276	1038.541626	1098.019897	-274.216553	927.217834	870.154205	288.724396	1177.717773	875.665375	-230.342918	1065.914062	978.456238	164.010376	1063.105103	975.954651	-126.362312	886.717041	994.671997	17.732428	868.443054	1313.599121	-4.305030	1160.314209	1199.959351	17.506359	1094.094360	644.933411	239.558502	1138.190308	500.076447	183.120209	1030.573364	325.998474	202.798737	917.853516	166.240356	124.889931	865.978088	183.172348	69.093102	1021.445435	77.807129	101.838722	987.762268	623.362122	-183.399750	1002.035706	470.513733	-93.535866	976.404053	257.832550	-118.889496	961.567261	67.235420	-39.226768	904.138916	63.440159	11.379449	1094.903931	51.034618	-3.577752
391	3.90000000	991.252136	1459.453125	193.011673	1010.174316	1442.805664	-201.691910	959.846497	1500.247803	-7.239497	1101.816772	1394.884033	8.517682	896.787292	1129.729980	283.536896	1052.218750	1099.182739	-275.548676	933.630005	869.631470	287.023239	1196.549744	880.555511	-229.823326	1076.327515	978.517151	163.146896	1072.245361	975.725830	-127.005447	896.351074	994.468750	17.873373	878.160217	1313.443848	-4.735449	1169.946289	1199.723267	16.564119	1108.089111	645.958557	238.121414	1153.635132	501.218201	181.026642	1053.359619	322.435211	201.747513	948.473450	156.985138	124.571854	895.842163	171.011307	68.888474	1056.466919	73.930542	102.196732	993.824219	623.183594	-183.271881	1005.414429	470.311279	-93.201965	977.920776	257.810791	-118.639374	961.739807	67.277016	-39.012901	904.290039	63.712643	11.666795	1095.072632	51.007553	-3.571855
392	3.91000000	1001.031494	1458.689941	192.763046	1020.134033	1442.992920	-201.912231	969.890869	1499.961792	-7.481413	1111.623413	1394.356445	8.144924	904.575500	1129.210815	282.307770	1065.684937	1100.119385	-276.903656	940.306244	868.944061	285.364075	1214.983521	885.327087	-229.275764	1086.655762	978.322754	162.355865	1081.480835	975.336426	-127.624481	905.983704	994.053711	17.984018	887.917175	1313.123413	-5.121395	1179.604614	1199.268433	15.656611	1121.570068	646.595764	236.560303	1168.510010	502.015259	178.923813	1076.072510	318.728363	200.689713	979.669922	147.737839	124.178955	926.423706	158.749176	68.635109	1091.861328	70.385468	102.374893	1000.121460	622.895996	-183.225632	1009.000488	470.044312	-92.923645	979.606628	257.744629	-118.417999	961.942017	67.316910	-38.802387	904.482117	63.974419	11.939729	1095.255493	50.983360	-3.564320
